<svg width="26" height="39" viewBox="0 0 26 39" fill="none" xmlns="http://www.w3.org/2000/svg">
<path d="M24.6438 6.39147C24.6438 6.39147 23.9358 6.55219 23.2756 6.26036C21.7841 5.59634 22.4761 3.51969 20.9329 1.72642C19.9943 0.635232 18.4749 -0.0668514 16.9914 0.00504868C16.5737 0.0261958 15.3766 0.102326 14.4101 1.04126C13.7498 1.6799 13.3402 2.56385 13.3402 3.54084V6.98359C14.0203 6.98359 14.5731 7.51649 14.5731 8.17628V21.8627C14.5731 22.5225 14.0203 23.0554 13.3402 23.0554V26.7011C11.964 25.5127 10.1622 24.7387 8.08606 24.7387C7.61275 24.7387 4.23597 24.8106 1.8933 27.6274C1.32056 28.3252 -0.0118525 30.1692 7.96144e-05 32.5631C7.96144e-05 32.7365 0.00803434 32.8803 0.0159891 32.9818C0.775665 33.3371 1.6825 33.6923 2.7206 33.9673C4.63371 34.4748 6.32408 34.5382 7.59286 34.4748C7.61673 34.4367 7.6923 34.3352 7.82355 34.2929C7.85935 34.2845 7.89514 34.276 7.93492 34.276C8.15765 34.276 8.33663 34.4621 8.33663 34.6947C8.33663 34.9273 8.15765 35.1134 7.93492 35.1134C7.81957 35.1134 7.71616 35.0627 7.64059 34.9781C6.71784 35.2445 5.41327 35.511 3.84619 35.4856C2.47002 35.4645 1.31659 35.2276 0.457476 34.9781C0.755778 35.6886 1.24102 36.6318 2.06433 37.5538C2.62912 38.1882 3.13424 38.5858 3.29731 38.7127H13.0896C13.543 38.3362 16.2198 36.0397 16.176 32.5631C16.176 32.284 16.1521 32.0048 16.1124 31.7257V4.70816C16.4186 3.87074 17.2459 3.27016 18.2204 3.27016C18.7692 3.27016 19.2704 3.46048 19.6562 3.77346C19.7875 3.89188 19.9465 4.0526 20.0977 4.25984C20.1613 4.34866 20.221 4.44594 20.4 4.78852C20.5272 5.0296 20.5909 5.15225 20.7022 5.38487C21.2591 6.5395 22.1421 7.03857 22.1421 7.03857C22.3011 7.13162 23.0767 7.57147 24.0432 7.34732C25.3399 7.04703 25.8052 5.83318 25.837 5.74437C25.666 5.91354 25.2603 6.26458 24.6359 6.39147H24.6438ZM5.17463 30.6049C4.69337 30.6049 4.29961 30.2285 4.29961 29.759C4.29961 29.2895 4.68939 28.9131 5.17463 28.9131C5.65987 28.9131 6.04965 29.2895 6.04965 29.759C6.04965 30.2285 5.65987 30.6049 5.17463 30.6049Z" fill="white"/>
</svg>
