<svg width="144" height="143" viewBox="0 0 144 143" fill="none" xmlns="http://www.w3.org/2000/svg">
<g clip-path="url(#clip0_236_3121)">
<path d="M72 62.7076C76.8589 62.7076 80.7979 66.6466 80.7979 71.5055C80.7978 76.3644 76.8589 80.3033 72 80.3033C67.1411 80.3033 63.2022 76.3644 63.2021 71.5055C63.2021 66.6466 67.1411 62.7076 72 62.7076Z" fill="white" stroke="white" stroke-width="0.279297"/>
<path d="M51.9613 53.6952C47.6015 58.6026 45.1934 64.9389 45.1934 71.5032C45.1934 78.0675 47.6015 84.4038 51.9613 89.3112M92.046 89.3112C96.4058 84.4038 98.8139 78.0675 98.8139 71.5032C98.8139 64.9389 96.4058 58.6026 92.046 53.6952M37.7255 39.4595C29.6016 48.1508 25.0825 59.6035 25.0825 71.5004C25.0825 83.3973 29.6016 94.85 37.7255 103.541M106.276 103.541C114.4 94.85 118.919 83.3973 118.919 71.5004C118.919 59.6035 114.4 48.1508 106.276 39.4595" stroke="white" stroke-width="8.9375" stroke-linecap="round" stroke-linejoin="round"/>
<path d="M121.994 116.188C132.966 103.888 139.03 87.9823 139.03 71.5C139.03 55.0177 132.966 39.1115 121.994 26.8125M22.0055 26.8125C11.0328 39.1115 4.96875 55.0177 4.96875 71.5C4.96875 87.9823 11.0328 103.888 22.0055 116.188" stroke="white" stroke-width="8.9375" stroke-linecap="round" stroke-linejoin="round"/>
</g>
<defs>
<clipPath id="clip0_236_3121">
<rect width="143" height="143" fill="white" transform="translate(0.5)"/>
</clipPath>
</defs>
</svg>
