<svg width="142" height="141" viewBox="0 0 142 141" fill="none" xmlns="http://www.w3.org/2000/svg">
<path d="M33.494 117.5C30.7876 117.5 28.5296 116.595 26.7201 114.786C24.9106 112.976 24.0039 110.716 24 108.006V32.994C24 30.2876 24.9067 28.0296 26.7201 26.2201C28.5335 24.4106 30.7915 23.5039 33.494 23.5H108.512C111.214 23.5 113.472 24.4067 115.286 26.2201C117.099 28.0335 118.004 30.2915 118 32.994V108.012C118 110.714 117.095 112.972 115.286 114.786C113.476 116.599 111.216 117.504 108.506 117.5H33.494ZM33.494 111.625H51.3423V83.378H48.9688C47.5313 83.378 46.3426 82.91 45.4026 81.9739C44.4626 81.0339 43.9926 79.8452 43.9926 78.4077V29.375H33.4999C32.4424 29.375 31.5748 29.7138 30.8972 30.3914C30.2197 31.069 29.8789 31.9365 29.875 32.994V108.012C29.875 109.065 30.2138 109.931 30.8914 110.609C31.569 111.286 32.4365 111.625 33.494 111.625ZM90.6577 111.625H108.512C109.565 111.625 110.431 111.286 111.109 110.609C111.786 109.931 112.125 109.064 112.125 108.006V32.994C112.125 31.9365 111.786 31.069 111.109 30.3914C110.431 29.7138 109.565 29.375 108.512 29.375H98.0015V78.4077C98.0015 79.8491 97.5315 81.0378 96.5915 81.9739C95.6554 82.9139 94.4687 83.3839 93.0312 83.3839H90.6577V111.625ZM56.5475 111.625H85.4701V83.378H83.0966C81.6592 83.378 80.4705 82.91 79.5305 81.9739C78.5905 81.0339 78.1205 79.8452 78.1205 78.4077V29.375H63.8913V78.4077C63.8913 79.8491 63.4212 81.0378 62.4813 81.9739C61.5413 82.9139 60.3525 83.3839 58.9151 83.3839H56.5475V111.625Z" fill="white"/>
</svg>
