<svg width="131" height="131" viewBox="0 0 131 131" fill="none" xmlns="http://www.w3.org/2000/svg">
<path d="M35.5023 108.643H30.9198C28.4246 108.643 26.3428 107.809 24.6744 106.141C23.0061 104.473 22.1701 102.389 22.1665 99.8902V65.3101C22.1665 59.3013 23.2968 53.6715 25.5573 48.421C27.8179 43.1704 30.9126 38.5807 34.8415 34.6518C38.7704 30.7229 43.3601 27.6282 48.6107 25.3676C53.8612 23.1071 59.491 21.9768 65.4998 21.9768C71.5087 21.9768 77.1385 23.1071 82.389 25.3676C87.6396 27.6282 92.2293 30.7229 96.1582 34.6518C100.087 38.5807 103.182 43.1704 105.442 48.421C107.703 53.6715 108.833 59.3013 108.833 65.3101V99.8956C108.833 102.387 107.999 104.467 106.331 106.136C104.662 107.804 102.579 108.64 100.08 108.643H95.4973C93.0779 108.643 91.0142 107.791 89.3061 106.087C87.6016 104.382 86.7494 102.317 86.7494 99.8902V84.0626C86.7494 81.6396 87.6016 79.574 89.3061 77.866C91.0105 76.1579 93.0761 75.3057 95.5028 75.3093H103.417V65.3101C103.417 54.7476 99.7386 45.7885 92.3828 38.4326C85.0269 31.0768 76.066 27.3971 65.4998 27.3935C54.9337 27.3899 45.9746 31.0696 38.6223 38.4326C31.2701 45.7957 27.5904 54.7549 27.5832 65.3101V75.3093H35.5023C37.9218 75.3093 39.9855 76.1615 41.6936 77.866C43.398 79.5704 44.2503 81.6342 44.2503 84.0572V99.8902C44.2503 102.317 43.398 104.382 41.6936 106.087C39.9891 107.791 37.9218 108.643 35.4915 108.643M35.4915 80.726H27.5832V99.8956C27.5832 100.726 27.9298 101.49 28.6232 102.187C29.3165 102.884 30.0803 103.23 30.9144 103.227H35.4969C36.4719 103.227 37.2718 102.914 37.8965 102.29C38.5212 101.665 38.8336 100.867 38.8336 99.8956V84.0518C38.8336 83.0804 38.5212 82.2824 37.8965 81.6576C37.2718 81.0329 36.4737 80.7206 35.5023 80.7206M92.1661 84.0572V99.8902C92.1661 100.862 92.4785 101.66 93.1032 102.284C93.7279 102.909 94.5278 103.221 95.5028 103.221H100.085C100.916 103.221 101.68 102.875 102.377 102.181C103.073 101.488 103.42 100.723 103.417 99.8847V80.7206H95.5028C94.5278 80.7206 93.7279 81.0329 93.1032 81.6576C92.4785 82.2824 92.1661 83.0822 92.1661 84.0572ZM35.5023 80.7206H38.8336L27.5832 80.726L35.5023 80.7206Z" fill="white"/>
</svg>
