<svg width="134" height="133" viewBox="0 0 134 133" fill="none" xmlns="http://www.w3.org/2000/svg">
<path d="M44.8333 33.8041L105.792 27.7083V88.6666C105.792 93.0758 104.04 97.3044 100.922 100.422C97.8045 103.54 93.5759 105.292 89.1667 105.292C84.7574 105.292 80.5288 103.54 77.411 100.422C74.2932 97.3044 72.5417 93.0758 72.5417 88.6666C72.5417 84.2574 74.2932 80.0287 77.411 76.9109C80.5288 73.7931 84.7574 72.0416 89.1667 72.0416C93.4337 72.0416 97.3129 73.6487 100.25 76.2533V50.0966L50.375 55.6383V94.2083C50.375 98.6175 48.6234 102.846 45.5057 105.964C42.3879 109.082 38.1592 110.833 33.75 110.833C29.3408 110.833 25.1121 109.082 21.9943 105.964C18.8766 102.846 17.125 98.6175 17.125 94.2083C17.125 89.799 18.8766 85.5704 21.9943 82.4526C25.1121 79.3348 29.3408 77.5833 33.75 77.5833C38.0171 77.5833 41.8962 79.1903 44.8333 81.7949V33.8041ZM50.375 38.7916V50.0412L100.25 44.5549V33.7487L50.375 38.7916ZM44.8333 94.2083C44.8333 91.2688 43.6656 88.4497 41.5871 86.3712C39.5086 84.2926 36.6895 83.1249 33.75 83.1249C30.8105 83.1249 27.9914 84.2926 25.9129 86.3712C23.8344 88.4497 22.6667 91.2688 22.6667 94.2083C22.6667 97.1477 23.8344 99.9668 25.9129 102.045C27.9914 104.124 30.8105 105.292 33.75 105.292C36.6895 105.292 39.5086 104.124 41.5871 102.045C43.6656 99.9668 44.8333 97.1477 44.8333 94.2083ZM100.25 88.6666C100.25 85.7271 99.0823 82.908 97.0038 80.8295C94.9252 78.751 92.1061 77.5833 89.1667 77.5833C86.2272 77.5833 83.4081 78.751 81.3296 80.8295C79.251 82.908 78.0833 85.7271 78.0833 88.6666C78.0833 91.6061 79.251 94.4252 81.3296 96.5037C83.4081 98.5822 86.2272 99.7499 89.1667 99.7499C92.1061 99.7499 94.9252 98.5822 97.0038 96.5037C99.0823 94.4252 100.25 91.6061 100.25 88.6666Z" fill="white"/>
</svg>
