<svg width="126" height="125" viewBox="0 0 126 125" fill="none" xmlns="http://www.w3.org/2000/svg">
<path d="M99.459 21.3541C94.7715 17.1875 89.0423 14.5833 82.7923 13.0208C81.2298 12.5 71.334 10.4166 64.0423 10.4166H61.959C54.6673 10.4166 44.2506 12.5 42.6881 13.0208C36.959 14.5833 31.2298 17.1875 26.5423 21.3541C16.1256 30.7291 16.1256 45.3125 21.334 57.2916C26.5423 70.3125 32.2715 81.7708 40.084 93.2291C46.334 102.083 53.1048 114.583 63.0006 114.583C72.8965 114.583 79.6673 102.083 86.4381 93.2291C94.2506 82.2916 99.9798 70.3125 105.188 57.2916C109.876 45.3125 109.876 30.7291 99.459 21.3541ZM95.2923 53.125C89.5631 67.1875 84.3548 77.6041 77.584 86.9791C76.5423 88.0208 76.0215 89.5833 74.9798 90.625C72.3756 94.7916 66.1256 104.167 63.0006 104.167C59.3548 104.167 53.6256 95.3125 50.5006 90.625C49.459 89.5833 48.9381 88.0208 47.8965 86.9791C41.6465 77.6041 35.9173 67.1875 30.1881 53.125C29.1465 49.4791 24.9798 36.4583 33.3131 28.6458C35.9173 26.0416 40.084 24.4791 45.2923 22.9166C47.3756 22.9166 56.2298 20.8333 61.959 20.8333H63.5215C69.2506 20.8333 78.1048 22.3958 80.1881 22.9166C85.3965 24.4791 89.5631 26.0416 92.1673 28.6458C101.021 36.4583 96.8548 49.4791 95.2923 53.125Z" fill="white"/>
</svg>
