<svg width="80" height="119" viewBox="0 0 80 119" fill="none" xmlns="http://www.w3.org/2000/svg">
<path d="M0.5 34.1071C0.5 25.1277 4.06708 16.516 10.4165 10.1665C16.766 3.81708 25.3777 0.25 34.3571 0.25H45.6429C54.6223 0.25 63.234 3.81708 69.5835 10.1665C75.9329 16.516 79.5 25.1277 79.5 34.1071V67.9643C79.5 70.2779 79.2743 72.5331 78.8229 74.7301C77.263 82.3785 73.1082 89.253 67.0618 94.1899C61.0153 99.1268 53.4488 101.823 45.6429 101.821V107.464H73.8571V118.75H6.14286V107.464H34.3571V101.821C25.3777 101.821 16.766 98.2543 10.4165 91.9049C4.06708 85.5555 0.5 76.9438 0.5 67.9643V34.1071ZM11.7857 59.5V67.9643H28.7143V79.25H14.8046C16.7861 82.682 19.6363 85.5319 23.0686 87.513C26.5008 89.4941 30.3942 90.5366 34.3571 90.5357H45.6429C49.6058 90.5366 53.4992 89.4941 56.9314 87.513C60.3637 85.5319 63.2139 82.682 65.1954 79.25H51.2857V67.9643H68.2143V59.5H51.2857V48.2143H68.2143V39.75H51.2857V28.4643H67.5033C66.252 23.6182 63.4256 19.3255 59.4684 16.2611C55.5113 13.1967 50.6478 11.5344 45.6429 11.5357H34.3571C29.3522 11.5344 24.4887 13.1967 20.5316 16.2611C16.5744 19.3255 13.748 23.6182 12.4967 28.4643H28.7143V39.75H11.7857V48.2143H28.7143V59.5H11.7857Z" fill="white"/>
</svg>
